<svg width="89" height="31" viewBox="0 0 89 31" fill="none" xmlns="http://www.w3.org/2000/svg">
<path d="M62.3413 29.988V0.167969H73.8073C77.1113 0.167969 79.8693 0.839968 82.0813 2.18397C84.3213 3.49997 86.0013 5.29197 87.1213 7.55997C88.2693 9.79997 88.8433 12.292 88.8433 15.036C88.8433 18.06 88.2133 20.692 86.9533 22.932C85.7213 25.172 83.9713 26.908 81.7033 28.14C79.4633 29.372 76.8313 29.988 73.8073 29.988H62.3413ZM80.5273 15.036C80.5273 13.496 80.2613 12.152 79.7293 11.004C79.1973 9.82797 78.4273 8.91797 77.4193 8.27397C76.4113 7.62997 75.2073 7.30797 73.8073 7.30797H70.5313V22.848H73.8073C75.2353 22.848 76.4393 22.512 77.4193 21.84C78.4273 21.168 79.1973 20.244 79.7293 19.068C80.2613 17.864 80.5273 16.52 80.5273 15.036Z" fill="white"/>
<path d="M43.6659 30.24C41.3979 30.24 39.3399 29.82 37.4919 28.98C35.6439 28.112 34.0479 26.964 32.7039 25.536C31.3879 24.08 30.3659 22.456 29.6379 20.664C28.9379 18.844 28.5879 16.968 28.5879 15.036C28.5879 13.048 28.9659 11.158 29.7219 9.366C30.4779 7.574 31.5279 5.978 32.8719 4.578C34.2439 3.15 35.8539 2.03 37.7019 1.218C39.5779 0.406 41.6219 0 43.8339 0C46.1019 0 48.1599 0.434 50.0079 1.302C51.8559 2.142 53.4379 3.29 54.7539 4.746C56.0699 6.202 57.0779 7.84 57.7779 9.66C58.5059 11.452 58.8699 13.3 58.8699 15.204C58.8699 17.164 58.4919 19.04 57.7359 20.832C57.0079 22.624 55.9579 24.234 54.5859 25.662C53.2419 27.062 51.6459 28.182 49.7979 29.022C47.9499 29.834 45.9059 30.24 43.6659 30.24ZM36.9039 15.12C36.9039 16.128 37.0439 17.108 37.3239 18.06C37.6039 18.984 38.0239 19.824 38.5839 20.58C39.1439 21.308 39.8439 21.896 40.6839 22.344C41.5519 22.764 42.5739 22.974 43.7499 22.974C44.9259 22.974 45.9479 22.75 46.8159 22.302C47.6839 21.854 48.3839 21.252 48.9159 20.496C49.4759 19.712 49.8819 18.858 50.1339 17.934C50.4139 16.982 50.5539 16.016 50.5539 15.036C50.5539 14.028 50.4139 13.062 50.1339 12.138C49.8539 11.214 49.4339 10.388 48.8739 9.66C48.3139 8.904 47.5999 8.316 46.7319 7.896C45.8639 7.476 44.8559 7.266 43.7079 7.266C42.5319 7.266 41.5099 7.49 40.6419 7.938C39.8019 8.386 39.1019 8.988 38.5419 9.744C37.9819 10.472 37.5619 11.312 37.2819 12.264C37.0299 13.188 36.9039 14.14 36.9039 15.12Z" fill="white"/>
<path d="M0 14.826C0 13.006 0.336 11.228 1.008 9.492C1.708 7.728 2.716 6.132 4.032 4.704C5.348 3.276 6.944 2.142 8.82 1.302C10.724 0.434 12.866 0 15.246 0C18.102 0 20.594 0.602 22.722 1.806C24.85 2.982 26.432 4.55 27.468 6.51L21.21 10.962C20.846 9.982 20.314 9.226 19.614 8.694C18.942 8.162 18.2 7.798 17.388 7.602C16.604 7.378 15.834 7.266 15.078 7.266C13.902 7.266 12.88 7.504 12.012 7.98C11.172 8.428 10.472 9.03 9.912 9.786C9.38 10.542 8.974 11.382 8.694 12.306C8.442 13.23 8.316 14.154 8.316 15.078C8.316 16.114 8.47 17.108 8.778 18.06C9.086 19.012 9.534 19.866 10.122 20.622C10.71 21.35 11.424 21.924 12.264 22.344C13.132 22.764 14.098 22.974 15.162 22.974C15.918 22.974 16.688 22.862 17.472 22.638C18.256 22.386 18.97 21.994 19.614 21.462C20.258 20.93 20.748 20.216 21.084 19.32L27.762 23.31C27.174 24.766 26.194 26.012 24.822 27.048C23.45 28.084 21.896 28.882 20.16 29.442C18.424 29.974 16.702 30.24 14.994 30.24C12.782 30.24 10.752 29.806 8.904 28.938C7.084 28.042 5.502 26.866 4.158 25.41C2.842 23.926 1.82 22.274 1.092 20.454C0.364 18.606 0 16.73 0 14.826Z" fill="white"/>
</svg>
