<svg width="19" height="19" viewBox="0 0 19 19" fill="none" xmlns="http://www.w3.org/2000/svg">
<path d="M9.425 18.85C14.6303 18.85 18.85 14.6303 18.85 9.425C18.85 4.21971 14.6303 0 9.425 0C4.21971 0 0 4.21971 0 9.425C0 14.6303 4.21971 18.85 9.425 18.85Z" fill="url(#paint0_linear_310_367)"/>
<path d="M14.0645 8.94605C14.0645 9.48429 13.9785 9.97631 13.8067 10.4228C13.6349 10.8692 13.3921 11.2194 13.0782 11.4734C12.7646 11.7274 12.4001 11.8546 11.9855 11.8546C11.7089 11.8546 11.4641 11.7886 11.2513 11.6557C11.0384 11.5231 10.8851 11.3482 10.7921 11.1315H10.7022C10.2988 11.6133 9.78507 11.8542 9.16112 11.8542C8.49987 11.8542 7.97885 11.6554 7.5974 11.2577C7.21627 10.8597 7.02571 10.3154 7.02571 9.62418C7.02571 8.83579 7.27618 8.20068 7.77681 7.71853C8.27712 7.2367 8.93104 6.99578 9.73823 6.99578C10.0594 6.99578 10.4135 7.0267 10.8 7.0882C11.1866 7.1497 11.5049 7.22364 11.7554 7.30968L11.6267 10.0502C11.6267 10.5694 11.7685 10.8291 12.0524 10.8291C12.2914 10.8291 12.482 10.6544 12.6241 10.3052C12.7659 9.95592 12.837 9.49927 12.837 8.9349C12.837 8.33357 12.7117 7.80202 12.4613 7.34058C12.2111 6.87915 11.859 6.52734 11.4049 6.28419C10.9511 6.04136 10.4326 5.91996 9.84977 5.91996C9.09515 5.91996 8.43965 6.07515 7.88293 6.38521C7.32621 6.69528 6.89919 7.1427 6.60219 7.72746C6.30519 8.31222 6.15669 8.98748 6.15669 9.75324C6.15669 10.7845 6.43202 11.5754 6.98332 12.1264C7.53431 12.6774 8.33289 12.953 9.37908 12.953C9.77487 12.953 10.2102 12.9094 10.6847 12.8214C11.1589 12.7338 11.6264 12.6057 12.0856 12.4377V13.5136C11.286 13.8536 10.3988 14.0234 9.4237 14.0234C8.00402 14.0234 6.89728 13.6499 6.10347 12.9027C5.30966 12.1557 4.9126 11.1171 4.9126 9.78702C4.9126 8.86447 5.11528 8.02668 5.52063 7.27367C5.92566 6.52097 6.50309 5.93079 7.25228 5.50281C8.00116 5.07516 8.86348 4.86133 9.83861 4.86133C10.6605 4.86133 11.3944 5.02927 12.0409 5.36547C12.6872 5.70198 13.1859 6.17999 13.5371 6.80012C13.8889 7.42026 14.0645 8.13568 14.0645 8.94605ZM8.3262 9.6468C8.3262 10.4349 8.64742 10.8291 9.29018 10.8291C9.62637 10.8291 9.88227 10.7105 10.0579 10.4731C10.2334 10.236 10.3399 9.85044 10.3775 9.31635L10.4505 8.078C10.2599 8.03689 10.0451 8.01617 9.80579 8.01617C9.33894 8.01617 8.97565 8.1618 8.71593 8.45338C8.4559 8.74465 8.3262 9.14235 8.3262 9.6468Z" fill="white"/>
<defs>
<linearGradient id="paint0_linear_310_367" x1="6.00388" y1="19.468" x2="12.5713" y2="0.189354" gradientUnits="userSpaceOnUse">
<stop stop-color="#00D1FF"/>
<stop offset="1" stop-color="#005E87"/>
</linearGradient>
</defs>
</svg>
