<svg width="19" height="19" viewBox="0 0 19 19" fill="none" xmlns="http://www.w3.org/2000/svg">
<path d="M9.425 18.85C14.6303 18.85 18.85 14.6303 18.85 9.425C18.85 4.21972 14.6303 0 9.425 0C4.21972 0 0 4.21972 0 9.425C0 14.6303 4.21972 18.85 9.425 18.85Z" fill="url(#paint0_linear_310_389)"/>
<path d="M8.4 13H6C5.17 13 4.4625 12.7075 3.8775 12.1225C3.2925 11.5375 3 10.83 3 10C3 9.17 3.2925 8.4625 3.8775 7.8775C4.4625 7.2925 5.17 7 6 7H8.4V8.2H6C5.5 8.2 5.075 8.375 4.725 8.725C4.375 9.075 4.2 9.5 4.2 10C4.2 10.5 4.375 10.925 4.725 11.275C5.075 11.625 5.5 11.8 6 11.8H8.4V13ZM6.6 10.6V9.4H11.4V10.6H6.6ZM9.6 13V11.8H12C12.5 11.8 12.925 11.625 13.275 11.275C13.625 10.925 13.8 10.5 13.8 10C13.8 9.5 13.625 9.075 13.275 8.725C12.925 8.375 12.5 8.2 12 8.2H9.6V7H12C12.83 7 13.5375 7.2925 14.1225 7.8775C14.7075 8.4625 15 9.17 15 10C15 10.83 14.7075 11.5375 14.1225 12.1225C13.5375 12.7075 12.83 13 12 13H9.6Z" fill="white"/>
<defs>
<linearGradient id="paint0_linear_310_389" x1="6.00388" y1="19.468" x2="12.5713" y2="0.189354" gradientUnits="userSpaceOnUse">
<stop stop-color="#A737FF"/>
<stop offset="1" stop-color="#7821BC"/>
</linearGradient>
</defs>
</svg>
