<svg width="19" height="19" viewBox="0 0 19 19" fill="none" xmlns="http://www.w3.org/2000/svg">
<path d="M9.425 18.85C14.6303 18.85 18.85 14.6303 18.85 9.425C18.85 4.21972 14.6303 0 9.425 0C4.21972 0 0 4.21972 0 9.425C0 14.6303 4.21972 18.85 9.425 18.85Z" fill="url(#paint0_linear_310_423)"/>
<path d="M9 10C9.34375 10 9.63802 9.8825 9.88281 9.6475C10.1276 9.4125 10.25 9.13 10.25 8.8C10.25 8.47 10.1276 8.1875 9.88281 7.9525C9.63802 7.7175 9.34375 7.6 9 7.6C8.65625 7.6 8.36198 7.7175 8.11719 7.9525C7.8724 8.1875 7.75 8.47 7.75 8.8C7.75 9.13 7.8724 9.4125 8.11719 9.6475C8.36198 9.8825 8.65625 10 9 10ZM9 14.41C10.2708 13.29 11.2135 12.2725 11.8281 11.3575C12.4427 10.4425 12.75 9.63 12.75 8.92C12.75 7.83 12.388 6.9375 11.6641 6.2425C10.9401 5.5475 10.0521 5.2 9 5.2C7.94792 5.2 7.0599 5.5475 6.33594 6.2425C5.61198 6.9375 5.25 7.83 5.25 8.92C5.25 9.63 5.55729 10.4425 6.17188 11.3575C6.78646 12.2725 7.72917 13.29 9 14.41ZM9 16C7.32292 14.63 6.07031 13.3575 5.24219 12.1825C4.41406 11.0075 4 9.92 4 8.92C4 7.42 4.5026 6.225 5.50781 5.335C6.51302 4.445 7.67708 4 9 4C10.3229 4 11.487 4.445 12.4922 5.335C13.4974 6.225 14 7.42 14 8.92C14 9.92 13.5859 11.0075 12.7578 12.1825C11.9297 13.3575 10.6771 14.63 9 16Z" fill="white"/>
<defs>
<linearGradient id="paint0_linear_310_423" x1="6.00388" y1="19.468" x2="12.5713" y2="0.189354" gradientUnits="userSpaceOnUse">
<stop stop-color="#FF0000"/>
<stop offset="1" stop-color="#9D0000"/>
</linearGradient>
</defs>
</svg>
