<svg width="19" height="19" viewBox="0 0 19 19" fill="none" xmlns="http://www.w3.org/2000/svg">
<path d="M9.424 18.848C14.6287 18.848 18.848 14.6287 18.848 9.424C18.848 4.21927 14.6287 0 9.424 0C4.21927 0 0 4.21927 0 9.424C0 14.6287 4.21927 18.848 9.424 18.848Z" fill="url(#paint0_linear_310_358)"/>
<path d="M14.0242 11.3255C13.9716 11.2417 13.6083 11.0671 13.6083 11.0671C13.465 10.996 12.4106 10.4795 12.2124 10.4085C12.0429 10.3476 11.8507 10.2785 11.6787 10.535C11.5474 10.7287 11.1644 11.1761 11.0398 11.3172C10.9522 11.4166 10.8722 11.4491 10.6782 11.3523C10.6457 11.3367 9.70664 10.9349 9.05885 10.362C8.48435 9.85469 8.08606 9.22729 7.94171 8.98099C7.85281 8.83091 7.91081 8.76081 8.02042 8.65088C8.08797 8.58492 8.38557 8.22486 8.40915 8.19045C8.45663 8.11812 8.54107 7.9451 8.54107 7.9451C8.62678 7.7759 8.57357 7.62837 8.52546 7.53119C8.49104 7.46428 7.95032 6.16201 7.89902 6.03965C7.7448 5.67195 7.58038 5.65251 7.42297 5.66175C7.3465 5.66717 6.63084 5.6729 6.40302 5.92016L6.36287 5.96254C6.13919 6.19929 5.67334 6.69158 5.67334 7.64463C5.67334 7.86385 5.70871 8.09422 5.78072 8.34977C5.91359 8.80892 6.17328 9.31141 6.51709 9.77121C6.52474 9.78108 7.04794 10.5079 7.30986 10.8093C8.13768 11.7627 9.07287 12.4669 10.0164 12.8355C11.2218 13.3065 11.7364 13.4142 12.0285 13.4142C12.1563 13.4142 12.4253 13.3492 12.4839 13.3438C12.8519 13.3106 13.7275 12.8547 13.9114 12.3423C14.0857 11.858 14.0892 11.4345 14.0242 11.3255Z" fill="white"/>
<defs>
<linearGradient id="paint0_linear_310_358" x1="6.00324" y1="19.4659" x2="12.57" y2="0.189334" gradientUnits="userSpaceOnUse">
<stop stop-color="#2FFFB4"/>
<stop offset="1" stop-color="#005720"/>
</linearGradient>
</defs>
</svg>
