<svg width="91" height="28" viewBox="0 0 91 28" fill="none" xmlns="http://www.w3.org/2000/svg">
<path d="M84.0252 19.6497L89.334 13.1951H84.1122V12.6294H90.1752V13.1516L84.881 19.6062H90.1462V20.1719H84.0252V19.6497Z" fill="white"/>
<path d="M83.4115 19.8091C83.3631 19.8284 83.2664 19.8768 83.1214 19.9541C82.9763 20.0315 82.7926 20.104 82.5702 20.1717C82.3478 20.2297 82.1012 20.2587 81.8305 20.2587C81.5694 20.2587 81.3228 20.2104 81.0907 20.1137C80.8683 20.0073 80.6894 19.8526 80.554 19.6495C80.4187 19.4465 80.351 19.1999 80.351 18.9098V13.2239H79.2921V12.6292H80.351V10.0474H81.0762V12.6292H82.8313V13.2239H81.0762V18.7357C81.0955 19.0162 81.1971 19.2289 81.3808 19.3739C81.5645 19.5093 81.7773 19.577 82.019 19.577C82.3188 19.577 82.5799 19.5287 82.8023 19.432C83.0247 19.3256 83.1552 19.2579 83.1939 19.2289L83.4115 19.8091Z" fill="white"/>
<path d="M78.671 13.2823C77.9941 13.3016 77.3994 13.5047 76.8869 13.8915C76.384 14.2686 76.0311 14.7908 75.828 15.458V20.1721H75.1028V12.6296H75.799V14.4862C76.0601 13.9544 76.4082 13.5241 76.8434 13.1953C77.2785 12.8568 77.7378 12.6634 78.2213 12.6151C78.318 12.6054 78.405 12.6006 78.4824 12.6006C78.5598 12.6006 78.6226 12.6006 78.671 12.6006V13.2823Z" fill="white"/>
<path d="M69.681 20.3171C69.1491 20.3171 68.656 20.2156 68.2015 20.0125C67.7567 19.8094 67.3699 19.529 67.0411 19.1712C66.7123 18.8038 66.4561 18.3831 66.2724 17.9093C66.0886 17.4355 65.9968 16.9375 65.9968 16.4153C65.9968 15.8835 66.0886 15.3855 66.2724 14.9213C66.4561 14.4475 66.7123 14.0317 67.0411 13.6739C67.3796 13.3065 67.7712 13.0212 68.216 12.8181C68.6705 12.6054 69.1588 12.499 69.681 12.499C70.2031 12.499 70.6866 12.6054 71.1315 12.8181C71.5763 13.0212 71.9679 13.3065 72.3063 13.6739C72.6448 14.0317 72.9059 14.4475 73.0896 14.9213C73.2733 15.3855 73.3652 15.8835 73.3652 16.4153C73.3652 16.9375 73.2733 17.4355 73.0896 17.9093C72.9059 18.3831 72.6448 18.8038 72.3063 19.1712C71.9776 19.529 71.5859 19.8094 71.1315 20.0125C70.6866 20.2156 70.2031 20.3171 69.681 20.3171ZM66.722 16.4443C66.722 17.0342 66.8525 17.5757 67.1136 18.0689C67.3844 18.5524 67.7422 18.9391 68.187 19.2292C68.6318 19.5193 69.125 19.6644 69.6665 19.6644C70.208 19.6644 70.7011 19.5193 71.146 19.2292C71.6004 18.9295 71.9582 18.533 72.2193 18.0399C72.4901 17.537 72.6254 16.9907 72.6254 16.4008C72.6254 15.8109 72.4901 15.2694 72.2193 14.7763C71.9582 14.2831 71.6004 13.8915 71.146 13.6014C70.7011 13.3016 70.2128 13.1517 69.681 13.1517C69.1395 13.1517 68.6463 13.3016 68.2015 13.6014C67.7567 13.9012 67.3989 14.2976 67.1281 14.7908C66.8574 15.2839 66.722 15.8351 66.722 16.4443Z" fill="white"/>
<path d="M61.3218 20.3171C60.6739 20.3171 60.0937 20.1479 59.5812 19.8094C59.0784 19.4613 58.6722 19.0407 58.3628 18.5475V23.2616H57.6376V12.6296H58.3048V14.1381C58.6142 13.6546 59.0252 13.2629 59.5377 12.9632C60.0502 12.6537 60.5917 12.499 61.1622 12.499C61.6941 12.499 62.1776 12.6102 62.6127 12.8326C63.0479 13.0454 63.425 13.3403 63.7441 13.7174C64.0729 14.0849 64.3243 14.5007 64.4983 14.9648C64.6821 15.429 64.7739 15.9125 64.7739 16.4153C64.7739 17.1115 64.6289 17.7594 64.3388 18.359C64.0487 18.9488 63.6426 19.4226 63.1204 19.7804C62.6079 20.1382 62.0083 20.3171 61.3218 20.3171ZM61.1477 19.6644C61.5925 19.6644 61.989 19.5725 62.3371 19.3888C62.6949 19.2051 62.9995 18.9585 63.2509 18.6491C63.5023 18.3396 63.6957 17.9915 63.8311 17.6047C63.9665 17.2179 64.0342 16.8214 64.0342 16.4153C64.0342 15.9802 63.9568 15.5692 63.8021 15.1824C63.6474 14.7859 63.4298 14.4378 63.1494 14.1381C62.8786 13.8383 62.5595 13.6014 62.1921 13.4273C61.8343 13.2436 61.4427 13.1517 61.0172 13.1517C60.7561 13.1517 60.4757 13.2049 60.1759 13.3113C59.8858 13.4177 59.6054 13.5675 59.3346 13.7609C59.0735 13.9543 58.856 14.1767 58.6819 14.4282C58.5079 14.6699 58.4015 14.9213 58.3628 15.1824V17.6627C58.5369 18.0302 58.7593 18.3686 59.03 18.6781C59.3105 18.9778 59.6344 19.2196 60.0019 19.4033C60.3693 19.5774 60.7513 19.6644 61.1477 19.6644Z" fill="white"/>
<path d="M55.0634 11.5849C54.899 11.4011 54.7153 11.2416 54.5123 11.1062C54.3092 10.9612 54.0916 10.8451 53.8595 10.7581C53.6275 10.6614 53.3761 10.5889 53.1053 10.5405C52.8345 10.4922 52.5444 10.468 52.235 10.468C51.2293 10.468 50.4944 10.6614 50.0303 11.0482C49.5758 11.4253 49.3486 11.9378 49.3486 12.5857C49.3486 13.0208 49.4501 13.369 49.6532 13.63C49.8659 13.8815 50.1947 14.0845 50.6395 14.2392C51.0843 14.394 51.6596 14.5438 52.3655 14.6889C53.1101 14.8436 53.7532 15.0273 54.2947 15.2401C54.8362 15.4431 55.252 15.7236 55.5421 16.0814C55.8419 16.4391 55.9917 16.9226 55.9917 17.5318C55.9917 17.9863 55.9047 18.3876 55.7307 18.7357C55.5566 19.0742 55.3052 19.3546 54.9764 19.577C54.6476 19.7994 54.256 19.9686 53.8015 20.0847C53.3567 20.2007 52.8587 20.2587 52.3075 20.2587C51.7757 20.2587 51.268 20.2007 50.7845 20.0847C50.301 19.9686 49.8466 19.7994 49.4211 19.577C48.9956 19.3546 48.5991 19.0693 48.2317 18.7212L48.6233 18.1265C48.8361 18.3586 49.073 18.5665 49.3341 18.7502C49.6048 18.9243 49.8949 19.0742 50.2043 19.1999C50.5234 19.3256 50.8619 19.4271 51.2197 19.5045C51.5775 19.5722 51.9497 19.606 52.3365 19.606C53.2358 19.606 53.9369 19.4416 54.4397 19.1129C54.9522 18.7744 55.2085 18.2764 55.2085 17.6189C55.2085 17.1644 55.0924 16.7969 54.8604 16.5165C54.6283 16.2361 54.2705 16.0088 53.787 15.8348C53.3035 15.651 52.6992 15.4818 51.9739 15.3271C51.2487 15.1724 50.6298 14.9983 50.1173 14.8049C49.6145 14.6115 49.2325 14.3504 48.9714 14.0217C48.72 13.6929 48.5943 13.2481 48.5943 12.6872C48.5943 12.0684 48.7442 11.5462 49.044 11.1207C49.3534 10.6856 49.7837 10.3568 50.3349 10.1344C50.8861 9.91198 51.5194 9.80078 52.235 9.80078C52.6798 9.80078 53.0908 9.8443 53.4679 9.93132C53.8547 10.0184 54.2077 10.1537 54.5268 10.3375C54.8555 10.5115 55.1601 10.7339 55.4406 11.0047L55.0634 11.5849Z" fill="white"/>
<path d="M46.708 0.359569C46.708 0.455454 46.696 0.545346 46.672 0.629245C46.66 0.713144 46.666 0.803037 46.69 0.898921C46.3184 1.12665 46.0608 1.42629 45.9169 1.79784C45.7252 1.89373 45.5693 2.02557 45.4495 2.19337C45.3296 2.34918 45.2158 2.51698 45.1079 2.69676C45.012 2.86456 44.9101 3.03236 44.8023 3.20016C44.6944 3.35597 44.5506 3.48782 44.3708 3.59569V3.99121C44.2749 3.96724 44.209 3.97923 44.173 4.02717C44.1491 4.06313 44.1071 4.09309 44.0472 4.11706C43.8075 4.57251 43.5618 5.02797 43.3101 5.48342C43.0584 5.92689 42.7467 6.32841 42.3752 6.68798C42.2793 6.93967 42.1714 7.18538 42.0516 7.42509C41.9317 7.6648 41.8059 7.90452 41.674 8.14423C41.5422 8.38394 41.4163 8.62365 41.2965 8.86337C41.1766 9.10308 41.0807 9.34878 41.0088 9.60048C40.7691 9.85218 40.5654 10.1338 40.3976 10.4455C40.2298 10.7451 40.0679 11.0507 39.9121 11.3624C39.7683 11.662 39.6065 11.9616 39.4267 12.2613C39.2589 12.5609 39.0552 12.8366 38.8155 13.0883C38.8274 13.1962 38.8095 13.2861 38.7615 13.358C38.7136 13.4299 38.6896 13.5078 38.6896 13.5917C38.6896 13.8674 38.8214 14.179 39.0851 14.5266C39.3608 14.8622 39.6844 15.2038 40.056 15.5513C40.4275 15.8869 40.7991 16.1986 41.1706 16.4862C41.5422 16.7739 41.8298 16.9956 42.0336 17.1514C42.3452 17.0196 42.6209 16.8877 42.8606 16.7559C43.1003 16.6121 43.388 16.5282 43.7236 16.5042C43.8914 16.5881 44.0232 16.702 44.1191 16.8458C44.227 16.9776 44.2809 17.1334 44.2809 17.3132C44.2809 17.5889 44.197 17.8526 44.0292 18.1043C43.8614 18.344 43.6756 18.5418 43.4719 18.6976C43.2801 18.7335 43.0883 18.7635 42.8966 18.7875C42.7048 18.8114 42.513 18.8234 42.3212 18.8234C41.9377 18.8234 41.5542 18.7875 41.1706 18.7155C40.7991 18.6316 40.4275 18.5418 40.056 18.4459C39.8522 18.1822 39.6245 17.9545 39.3728 17.7627C39.1331 17.5589 38.8634 17.3971 38.5638 17.2773C38.5518 17.1334 38.5158 17.0136 38.4559 16.9177C38.396 16.8218 38.324 16.7379 38.2401 16.666C38.1562 16.5821 38.0604 16.5102 37.9525 16.4503C37.8566 16.3903 37.7607 16.3244 37.6648 16.2525C37.545 16.2885 37.4371 16.3424 37.3412 16.4143C37.2453 16.4742 37.1375 16.5222 37.0176 16.5581C36.7899 17.1095 36.4842 17.6249 36.1007 18.1043C36.1247 18.32 36.0827 18.4878 35.9749 18.6077C35.879 18.7155 35.7531 18.8294 35.5973 18.9493C35.5374 19.2968 35.4235 19.6085 35.2557 19.8841C35.0999 20.1598 34.9141 20.4295 34.6984 20.6932L34.7164 20.837C34.7164 20.8849 34.6984 20.9269 34.6624 20.9628C34.6385 20.9988 34.6325 21.0587 34.6445 21.1426C34.4647 21.3584 34.3149 21.6041 34.195 21.8797C34.0751 22.1674 33.9613 22.4611 33.8534 22.7607C33.7575 23.0603 33.6616 23.36 33.5658 23.6596C33.4819 23.9593 33.386 24.2409 33.2781 24.5046C33.326 24.6125 33.35 24.7383 33.35 24.8821C33.35 25.014 33.338 25.1458 33.3141 25.2777C33.2901 25.4095 33.2781 25.5414 33.2781 25.6732C33.2781 25.7811 33.2961 25.8829 33.332 25.9788C33.368 26.0867 33.4339 26.1766 33.5298 26.2485C33.6736 26.1167 33.8594 26.0507 34.0871 26.0507C34.219 26.0507 34.3448 26.0687 34.4647 26.1047C34.5965 26.1406 34.7164 26.1886 34.8242 26.2485C34.8722 26.3444 34.8962 26.4283 34.8962 26.5002C34.8962 26.5841 34.8722 26.656 34.8242 26.7159C34.7883 26.7879 34.7403 26.8538 34.6804 26.9137C34.6325 26.9856 34.5785 27.0515 34.5186 27.1115C34.4707 27.1714 34.4407 27.2433 34.4287 27.3272C34.153 27.3512 33.8774 27.3931 33.6017 27.4531C33.338 27.513 33.0803 27.6029 32.8286 27.7227C32.6848 27.6988 32.553 27.6448 32.4331 27.5609C32.3252 27.489 32.1994 27.4351 32.0556 27.3991C31.8997 27.1954 31.7799 26.9736 31.696 26.7339C31.6001 26.4942 31.4803 26.2665 31.3364 26.0507C31.3364 25.7751 31.3724 25.4994 31.4443 25.2237C31.5162 24.9601 31.5941 24.6964 31.678 24.4327C31.7499 24.169 31.8159 23.8993 31.8758 23.6237C31.9357 23.36 31.9537 23.0903 31.9297 22.8146C32.0496 22.7547 32.1455 22.6588 32.2174 22.527C32.2893 22.4071 32.3432 22.2693 32.3792 22.1135C32.4271 21.9696 32.4691 21.8198 32.505 21.664C32.541 21.5202 32.5829 21.3883 32.6309 21.2685C32.7627 21.1846 32.8586 21.0767 32.9185 20.9449C32.9904 20.825 33.0923 20.7231 33.2242 20.6392C33.2242 20.6153 33.2182 20.5913 33.2062 20.5673C33.2062 20.5553 33.2062 20.5374 33.2062 20.5134C33.1942 20.4894 33.1822 20.4714 33.1702 20.4595C33.1582 20.4595 33.1522 20.4475 33.1522 20.4235C33.1522 20.3995 33.1463 20.3756 33.1343 20.3516C33.1343 20.3396 33.1403 20.3216 33.1522 20.2976L33.332 20.0639C33.4998 19.8482 33.6257 19.6504 33.7096 19.4706C33.7935 19.2789 33.8894 19.0631 33.9972 18.8234C34.0931 18.5957 34.213 18.368 34.3568 18.1402C34.5006 17.9125 34.6385 17.6848 34.7703 17.4571C35.0819 16.8937 35.3816 16.3364 35.6692 15.7851C35.9689 15.2217 36.2865 14.6644 36.6221 14.1131C36.5262 14.0412 36.4483 13.9573 36.3884 13.8614C36.3284 13.7535 36.2685 13.6456 36.2086 13.5378C36.1606 13.4299 36.1067 13.328 36.0468 13.2321C35.9868 13.1243 35.9029 13.0344 35.7951 12.9624C35.5434 12.3032 35.2557 11.662 34.9321 11.0388C34.6205 10.4035 34.3149 9.77427 34.0152 9.15102C33.9073 8.92329 33.8055 8.69557 33.7096 8.46784C33.6257 8.22813 33.5238 8.00639 33.4039 7.80264C33.368 7.74271 33.326 7.71874 33.2781 7.73072C33.2302 7.74271 33.1882 7.72473 33.1522 7.67679C33.0564 7.40112 32.9725 7.15542 32.9005 6.93967L32.6309 6.13064C32.6788 5.89093 32.7867 5.71714 32.9545 5.60927C33.1223 5.5014 33.32 5.44746 33.5478 5.44746C33.7276 5.44746 33.9193 5.47743 34.1231 5.53736C34.231 5.65721 34.3328 5.78905 34.4287 5.93288C34.5246 6.06472 34.6385 6.19057 34.7703 6.31043V6.77787C35.1179 7.48502 35.4415 8.19217 35.7411 8.89932C36.0528 9.60647 36.3884 10.3136 36.7479 11.0208C36.8798 11.0447 36.9876 11.0987 37.0715 11.1826C37.1554 11.2665 37.2334 11.3564 37.3053 11.4523C37.3772 11.5481 37.4491 11.638 37.521 11.7219C37.6049 11.8058 37.7188 11.8538 37.8626 11.8658C37.9105 11.8418 37.9825 11.7639 38.0783 11.632C38.1742 11.4882 38.2701 11.3384 38.366 11.1826C38.4739 11.0148 38.5638 10.853 38.6357 10.6972C38.7196 10.5414 38.7615 10.4335 38.7615 10.3736V10.2477C39.5526 9.15701 40.2178 8.0004 40.7571 6.77787C40.877 6.71794 40.9729 6.64003 41.0448 6.54415C41.1167 6.43628 41.1826 6.32841 41.2425 6.22054C41.3145 6.10068 41.3864 5.98682 41.4583 5.87895C41.5302 5.77108 41.6201 5.68118 41.728 5.60927C41.7879 5.35757 41.8838 5.12385 42.0156 4.90811C42.1475 4.69237 42.2853 4.47663 42.4291 4.26089C42.5729 4.04515 42.7108 3.82941 42.8426 3.61366C42.9745 3.38594 43.0763 3.14623 43.1483 2.89453C43.2801 2.84658 43.382 2.76868 43.4539 2.66081C43.5378 2.55294 43.6097 2.43907 43.6696 2.31922C43.7296 2.19936 43.7955 2.0855 43.8674 1.97763C43.9393 1.86976 44.0412 1.79185 44.173 1.74391C44.2569 1.34838 44.4187 1.02477 44.6584 0.773072C44.8982 0.521374 45.2098 0.329605 45.5933 0.197763L45.6652 0C45.7132 0.0239712 45.7971 0.0479425 45.9169 0.0719137C46.0368 0.0838993 46.1507 0.101878 46.2585 0.125849C46.3784 0.137835 46.4803 0.161806 46.5642 0.197763C46.66 0.23372 46.708 0.287655 46.708 0.359569Z" fill="white"/>
<path d="M36.4782 20.9087C36.4543 21.1484 36.3704 21.3342 36.2265 21.466C36.0827 21.6098 35.8969 21.6818 35.6692 21.6818C35.5493 21.6818 35.4355 21.6638 35.3276 21.6278C35.0999 21.8076 34.8302 21.9454 34.5186 22.0413C34.207 22.1372 33.9133 22.2331 33.6376 22.329C33.302 22.317 32.9724 22.287 32.6488 22.2391C32.3252 22.1911 31.9896 22.1792 31.642 22.2031C31.5222 22.1192 31.3963 22.0653 31.2645 22.0413C31.1326 22.0174 30.9948 21.9994 30.851 21.9874C30.7191 21.9874 30.5873 21.9694 30.4555 21.9335C30.3356 21.8975 30.2157 21.8136 30.0959 21.6818H29.197C29.1131 21.6818 28.9872 21.6398 28.8194 21.5559C28.6636 21.484 28.4838 21.4061 28.2801 21.3222C28.0883 21.2383 27.8785 21.1604 27.6508 21.0885C27.4351 21.0166 27.2313 20.9806 27.0396 20.9806H26.9317C26.7998 20.8727 26.644 20.7888 26.4642 20.7289C26.2964 20.681 26.1227 20.633 25.9429 20.5851C25.7631 20.5491 25.5893 20.5072 25.4215 20.4592C25.2537 20.4113 25.1099 20.3454 24.99 20.2615C24.8702 20.1776 24.7323 20.0937 24.5765 20.0098C24.4207 19.9139 24.2589 19.8719 24.0911 19.8839C23.8634 19.7521 23.6237 19.6382 23.372 19.5423C23.1322 19.4464 22.8865 19.3565 22.6348 19.2726L21.8977 19.003C21.658 18.9071 21.4183 18.7932 21.1786 18.6614C21.1426 18.6734 21.1007 18.6734 21.0527 18.6614C21.0048 18.6494 20.9628 18.6434 20.9269 18.6434C20.855 18.6434 20.813 18.6674 20.801 18.7153C20.7171 18.6314 20.6213 18.5595 20.5134 18.4996C20.4175 18.4396 20.3216 18.3677 20.2257 18.2838C20.1778 18.2958 20.1298 18.3078 20.0819 18.3198C20.0459 18.3198 19.998 18.3198 19.9381 18.3198C19.8302 18.3198 19.7223 18.3078 19.6145 18.2838C19.5186 18.2599 19.4227 18.2299 19.3268 18.1939C19.2189 18.4337 19.147 18.7033 19.1111 19.003C19.0751 19.3026 19.0451 19.6142 19.0212 19.9379C19.0092 20.2495 18.9912 20.5611 18.9672 20.8727C18.9433 21.1963 18.8893 21.49 18.8054 21.7537C18.8294 21.8496 18.8414 21.9454 18.8414 22.0413V22.347C18.8414 22.5507 18.8714 22.7125 18.9313 22.8324C18.9073 22.9402 18.8833 23.0421 18.8594 23.138C18.8474 23.2339 18.8294 23.3298 18.8054 23.4257C18.8174 23.5575 18.8234 23.6774 18.8234 23.7852C18.8354 23.9051 18.8414 24.0309 18.8414 24.1628V24.4684C18.8414 24.5763 18.8294 24.6842 18.8054 24.792C18.6856 24.8639 18.5657 24.9299 18.4459 24.9898C18.326 25.0617 18.2062 25.1456 18.0863 25.2415C18.0024 25.0857 17.8586 24.9958 17.6548 24.9718C17.6069 25.0317 17.5709 25.1096 17.5469 25.2055C17.535 25.3134 17.481 25.3673 17.3851 25.3673C17.2173 25.2355 17.0795 25.1276 16.9716 25.0437C16.8638 24.9598 16.7439 24.834 16.6121 24.6662C16.6001 24.6422 16.5941 24.6122 16.5941 24.5763C16.5941 24.5164 16.6061 24.4624 16.63 24.4145C16.654 24.3665 16.666 24.3186 16.666 24.2707C16.666 24.1268 16.648 24.001 16.6121 23.8931C16.5881 23.7373 16.5701 23.5815 16.5581 23.4257C16.5461 23.2818 16.5402 23.138 16.5402 22.9942C16.5402 22.7904 16.5521 22.5927 16.5761 22.4009C16.6121 22.2091 16.672 22.0114 16.7559 21.8076C16.8877 21.46 16.9776 21.0945 17.0256 20.7109C17.0855 20.3274 17.1274 19.9438 17.1514 19.5603C17.1754 19.1648 17.1874 18.7693 17.1874 18.3737C17.1994 17.9782 17.2233 17.6007 17.2593 17.2411C17.1754 17.0493 17.0735 16.8995 16.9537 16.7916C16.8458 16.6718 16.7918 16.486 16.7918 16.2343C16.7918 16.0066 16.8638 15.8328 17.0076 15.7129C17.1514 15.5811 17.2773 15.4253 17.3851 15.2455C17.3612 15.1736 17.3791 15.1256 17.4391 15.1017L17.6548 13.2139C17.6668 13.0821 17.6848 12.9382 17.7087 12.7824C17.7447 12.6266 17.7687 12.4828 17.7807 12.351C17.8046 12.0753 17.8166 11.8056 17.8166 11.5419C17.8166 11.2782 17.8286 11.0146 17.8526 10.7509C17.9125 10.1636 17.9664 9.58227 18.0144 9.00696C18.0743 8.43165 18.1043 7.85635 18.1043 7.28104C18.1043 7.00537 18.0923 6.7297 18.0683 6.45403C18.0563 6.17836 18.0204 5.90269 17.9604 5.62702C17.7567 5.68695 17.529 5.75287 17.2773 5.82478C17.0376 5.88471 16.8338 5.99258 16.666 6.14839H16.5222C16.2105 6.14839 15.9169 6.20832 15.6412 6.32818C15.3775 6.44803 15.1079 6.5619 14.8322 6.66977C14.7123 6.7297 14.5925 6.77165 14.4726 6.79562C14.3528 6.8076 14.2269 6.83157 14.0951 6.86753C14.0352 6.87952 13.9692 6.91547 13.8973 6.9754C13.8254 7.03533 13.7595 7.07728 13.6996 7.10125L13.3939 7.17316C13.31 7.19714 13.2741 7.25107 13.2861 7.33497C13.298 7.41887 13.2681 7.47281 13.1962 7.49678C13.1362 7.5567 13.0523 7.58667 12.9445 7.58667C12.8366 7.57468 12.7527 7.56869 12.6928 7.56869H12.6209C12.3212 7.78443 12.0336 7.97021 11.7579 8.12602C11.4702 8.26985 11.1346 8.36573 10.7511 8.41368L10.3556 8.66537C10.2237 8.74927 10.0739 8.79122 9.90611 8.79122C9.77427 8.79122 9.6664 8.76725 9.5825 8.71931C9.48661 8.57548 9.4147 8.41368 9.36676 8.23389C9.30683 8.05411 9.21094 7.89829 9.0791 7.76645C9.13903 7.70652 9.18098 7.62862 9.20495 7.53273C9.21694 7.42486 9.23491 7.32898 9.25889 7.24508C9.61845 7.08927 9.98402 6.93945 10.3556 6.79562C10.7151 6.65179 11.0627 6.478 11.3983 6.27424C11.4343 6.28623 11.4882 6.29222 11.5601 6.29222C11.68 6.29222 11.7879 6.27424 11.8837 6.23829C11.9796 6.20233 12.0755 6.16038 12.1714 6.11244C12.2673 6.06449 12.3632 6.02255 12.459 5.98659C12.5549 5.95063 12.6688 5.93865 12.8006 5.95063C13.2081 5.7229 13.6396 5.53713 14.0951 5.3933C14.5505 5.24947 14.982 5.05171 15.3895 4.80001C15.4495 4.80001 15.4974 4.812 15.5334 4.83597C15.5813 4.85994 15.6292 4.87193 15.6772 4.87193C15.7251 4.87193 15.7551 4.86593 15.7671 4.85395C15.839 4.75806 15.9349 4.69214 16.0547 4.65618C16.1746 4.60824 16.2944 4.57228 16.4143 4.54831C16.5461 4.51236 16.666 4.47041 16.7739 4.42246C16.8937 4.36254 16.9716 4.27264 17.0076 4.15279C17.0675 4.20073 17.1574 4.2247 17.2773 4.2247C17.481 4.2247 17.6668 4.18275 17.8346 4.09885C18.0144 4.01495 18.2062 3.973 18.4099 3.973C18.4578 3.973 18.4998 3.98499 18.5358 4.00896C18.5837 4.02095 18.6316 4.02694 18.6796 4.02694C18.7755 4.02694 18.8234 3.99698 18.8234 3.93705C18.8354 3.87712 18.8714 3.82318 18.9313 3.77524C19.6624 3.6434 20.3875 3.52354 21.1067 3.41567C21.8378 3.3078 22.5749 3.25387 23.318 3.25387C23.4259 3.18195 23.5457 3.146 23.6776 3.146C23.8094 3.146 23.9293 3.18195 24.0372 3.25387C24.2409 3.2299 24.4447 3.21192 24.6484 3.19993C24.8522 3.18795 25.0559 3.18195 25.2597 3.18195C25.7271 3.18195 26.2066 3.21192 26.698 3.27185C27.1894 3.33177 27.6748 3.42766 28.1542 3.5595C28.6456 3.67936 29.1131 3.84715 29.5565 4.0629C30 4.26665 30.4135 4.51236 30.797 4.80001C30.833 4.90788 30.8809 5.01575 30.9409 5.12362C31.0008 5.23149 31.0787 5.31539 31.1746 5.37532C31.1746 5.39929 31.1686 5.41727 31.1566 5.42926C31.1566 5.44124 31.1566 5.45922 31.1566 5.48319C31.1566 5.61503 31.1926 5.74088 31.2645 5.86074C31.3484 5.9806 31.3903 6.12442 31.3903 6.29222C31.3903 6.46002 31.3604 6.62782 31.3004 6.79562C31.2525 6.96342 31.2345 7.13122 31.2465 7.29901C31.1147 7.49078 31.0008 7.66458 30.9049 7.82039C30.821 7.9762 30.7671 8.17396 30.7431 8.41368C30.5274 8.62942 30.3356 8.86913 30.1678 9.13281C30 9.38451 29.8262 9.63621 29.6464 9.88791C29.4786 10.1276 29.2869 10.3494 29.0711 10.5531C28.8554 10.7569 28.5977 10.9187 28.298 11.0385C28.2861 11.1584 28.2381 11.2902 28.1542 11.4341H27.7767C27.7407 11.5299 27.6808 11.6019 27.5969 11.6498L27.3452 11.7936C27.2613 11.8416 27.1894 11.9015 27.1294 11.9734C27.0815 12.0453 27.0575 12.1472 27.0575 12.279C27.0336 12.2671 27.0036 12.2611 26.9676 12.2611C26.8478 12.2611 26.704 12.321 26.5362 12.4408C26.3803 12.5607 26.2545 12.6566 26.1586 12.7285C25.9549 12.8723 25.7451 13.0042 25.5294 13.124C25.3256 13.2439 25.1458 13.4117 24.99 13.6274C24.5106 13.8312 24.0551 14.0709 23.6237 14.3466C23.1922 14.6102 22.7247 14.82 22.2213 14.9758C22.0296 15.1796 21.8018 15.3414 21.5382 15.4612C21.2865 15.5691 21.0408 15.6889 20.801 15.8208V15.8747C20.801 15.9706 20.837 16.0665 20.9089 16.1624C20.9808 16.2463 21.0647 16.3242 21.1606 16.3961C21.2565 16.456 21.3584 16.498 21.4662 16.5219C21.5861 16.5459 21.688 16.5459 21.7719 16.5219C22.0116 16.7377 22.2873 16.9115 22.5989 17.0433C22.9105 17.1752 23.2341 17.295 23.5697 17.4029C23.9053 17.5108 24.2349 17.6246 24.5585 17.7445C24.8821 17.8643 25.1818 18.0142 25.4575 18.1939H25.8889C26.1646 18.4337 26.4882 18.6134 26.8598 18.7333C27.2433 18.8532 27.6089 18.961 27.9565 19.0569C28.1003 19.1887 28.2801 19.2906 28.4958 19.3625C28.7235 19.4225 28.9393 19.4524 29.143 19.4524H29.2509C29.2988 19.4524 29.3408 19.4464 29.3768 19.4345V19.4704C29.3768 19.5303 29.3947 19.5723 29.4307 19.5963C29.4666 19.6082 29.5026 19.6202 29.5386 19.6322C29.5865 19.6322 29.6284 19.6442 29.6644 19.6682C29.7123 19.6802 29.7483 19.7041 29.7723 19.7401H29.9521C30.2038 19.7401 30.4435 19.794 30.6712 19.9019C30.8989 19.9978 31.1386 20.0457 31.3903 20.0457C31.4982 20.0457 31.5821 20.0337 31.642 20.0098C31.7139 20.0337 31.7679 20.0817 31.8038 20.1536C31.8398 20.2255 31.8877 20.2854 31.9477 20.3334C32.0316 20.3214 32.1095 20.3094 32.1814 20.2974C32.2533 20.2974 32.3252 20.2974 32.3971 20.2974C32.6608 20.2974 32.9065 20.3274 33.1342 20.3873C33.362 20.4472 33.5957 20.5371 33.8354 20.657C34.2189 20.4892 34.5965 20.3514 34.968 20.2435C35.3396 20.1356 35.7351 20.0817 36.1546 20.0817V20.1176C36.1546 20.2615 36.1906 20.3933 36.2625 20.5132C36.3464 20.645 36.4183 20.7768 36.4782 20.9087ZM29.5925 6.5619C29.5925 6.41807 29.5625 6.30421 29.5026 6.22031C29.4547 6.13641 29.3887 6.06449 29.3048 6.00457C29.2209 5.93265 29.131 5.86673 29.0352 5.8068C28.9513 5.74688 28.8734 5.66897 28.8014 5.57308C28.4898 5.4772 28.1842 5.36933 27.8845 5.24947C27.5849 5.12962 27.2793 5.02774 26.9676 4.94384C26.8118 4.90788 26.656 4.87792 26.5002 4.85395C26.3444 4.81799 26.1886 4.80001 26.0328 4.80001H25.6372C25.5653 4.78803 25.4874 4.77604 25.4035 4.76405C25.3316 4.74008 25.2597 4.72211 25.1878 4.71012C25.02 4.68615 24.8522 4.66817 24.6844 4.65618C24.5286 4.6442 24.3668 4.63821 24.199 4.63821C23.8873 4.63821 23.5757 4.65019 23.2641 4.67416L22.3292 4.74608C22.1974 4.75806 22.0595 4.76405 21.9157 4.76405C21.7719 4.76405 21.64 4.77604 21.5202 4.80001C21.4602 4.812 21.3763 4.84196 21.2685 4.8899C21.1606 4.92586 21.0467 4.96781 20.9269 5.01575C20.807 5.05171 20.6872 5.09366 20.5673 5.1416C20.4594 5.18954 20.3636 5.2255 20.2797 5.24947C20.2916 5.33337 20.2976 5.41727 20.2976 5.50117V5.73489C20.2976 5.91467 20.2916 6.09446 20.2797 6.27424C20.2677 6.45403 20.2437 6.63381 20.2078 6.8136C20.1958 6.88551 20.1778 6.95742 20.1538 7.02934C20.1298 7.10125 20.1119 7.17316 20.0999 7.24508C20.0759 7.35295 20.0639 7.47281 20.0639 7.60465V7.94624C20.04 8.22191 20.022 8.49158 20.01 8.75527C19.998 9.01895 19.98 9.28863 19.9561 9.5643C19.8841 10.3553 19.8062 11.1404 19.7223 11.9195C19.6504 12.6985 19.6025 13.4836 19.5785 14.2746C19.974 14.1907 20.3516 14.0649 20.7111 13.8971C21.0707 13.7293 21.4243 13.5495 21.7719 13.3577C22.1195 13.154 22.467 12.9562 22.8146 12.7645C23.1622 12.5727 23.5278 12.4109 23.9113 12.279C24.0072 12.1472 24.1211 12.0393 24.2529 11.9554C24.3967 11.8715 24.5166 11.7637 24.6125 11.6318C24.7323 11.6318 24.8222 11.6078 24.8821 11.5599C24.9421 11.5 25.02 11.458 25.1159 11.4341C25.6912 10.9307 26.2785 10.4572 26.8777 10.0138C27.477 9.57029 28.0523 9.09686 28.6037 8.59346C28.6516 8.42566 28.7295 8.26386 28.8374 8.10804C28.9573 7.94024 29.0711 7.77245 29.179 7.60465C29.2869 7.43685 29.3827 7.26905 29.4666 7.10125C29.5505 6.93345 29.5925 6.75367 29.5925 6.5619Z" fill="white"/>
<path d="M20.4954 3.0384C20.3995 3.09833 20.2976 3.13428 20.1898 3.14627C20.0819 3.15825 19.968 3.17623 19.8482 3.2002C19.7403 3.21219 19.6384 3.23616 19.5426 3.27212C19.4467 3.30808 19.3748 3.374 19.3268 3.46988C19.207 3.35002 19.0751 3.24815 18.9313 3.16425C18.7875 3.08035 18.6436 2.99046 18.4998 2.89457C18.3799 2.93053 18.2601 2.97847 18.1402 3.0384C18.0204 3.09833 17.9005 3.12829 17.7807 3.12829C17.6968 3.12829 17.6129 3.09833 17.529 3.0384C17.4331 3.11031 17.3192 3.17024 17.1874 3.21818C17.0675 3.25414 16.9357 3.2901 16.7919 3.32605C16.66 3.36201 16.5342 3.40995 16.4143 3.46988C16.3064 3.52981 16.2285 3.6197 16.1806 3.73956C16.1566 3.67963 16.0967 3.66165 16.0008 3.68562C15.9169 3.70959 15.869 3.67963 15.857 3.59573C15.4734 3.72757 15.0839 3.84144 14.6884 3.93732C14.2929 4.03321 13.8973 4.13508 13.5018 4.24295C13.1063 4.35082 12.7167 4.47068 12.3332 4.60252C11.9497 4.73436 11.5781 4.89617 11.2185 5.08794C11.2066 5.09993 11.2006 5.1179 11.2006 5.14188C11.2006 5.26173 11.2185 5.37559 11.2545 5.48347C11.2905 5.59134 11.3204 5.69321 11.3444 5.7891C11.1286 6.52022 10.9848 7.26333 10.9129 8.01842C10.841 8.77352 10.7451 9.51663 10.6253 10.2477V10.3197C10.6253 10.3796 10.6492 10.4275 10.6972 10.4635C10.7451 10.4875 10.7691 10.5354 10.7691 10.6073L10.7511 10.6433C10.6912 10.6792 10.6492 10.7332 10.6253 10.8051C10.6013 10.865 10.5893 10.9309 10.5893 11.0028C10.5893 11.0508 10.6013 11.1227 10.6253 11.2186C10.4215 11.9018 10.2837 12.5969 10.2117 13.3041C10.1518 14.0112 10.0739 14.7184 9.97803 15.4255L9.81622 16.6121C9.79225 16.684 9.76828 16.7559 9.74431 16.8279C9.73232 16.8878 9.72633 16.9537 9.72633 17.0256C9.72633 17.4092 9.7503 17.7867 9.79825 18.1583C9.85817 18.5178 9.87615 18.8894 9.85218 19.2729C9.96005 19.4407 10.014 19.6025 10.014 19.7583C10.014 19.8183 10.008 19.8782 9.99601 19.9381C9.99601 19.9981 9.99002 20.058 9.97803 20.1179C10.1338 20.2737 10.3136 20.3816 10.5174 20.4415C10.7331 20.5134 10.9249 20.6213 11.0927 20.7651V20.837C11.0927 20.9569 11.0747 21.0708 11.0388 21.1786C11.0028 21.2985 10.9728 21.4183 10.9489 21.5382C10.9249 21.6341 10.8949 21.7719 10.859 21.9517C10.835 22.1315 10.799 22.2513 10.7511 22.3113C10.6912 22.3952 10.6013 22.4671 10.4814 22.527C10.3736 22.5989 10.2657 22.6349 10.1578 22.6349C10.1219 22.6349 10.0679 22.6169 9.99601 22.581C9.93608 22.545 9.88814 22.515 9.85218 22.4911C9.79225 22.4911 9.71435 22.521 9.61846 22.581C9.52258 22.6409 9.42669 22.6708 9.33081 22.6708C9.28286 22.6708 9.24091 22.6649 9.20496 22.6529C9.169 22.6529 9.12705 22.6409 9.07911 22.6169C9.03117 22.4971 8.95925 22.3892 8.86337 22.2933C8.77947 22.2094 8.67759 22.1255 8.55773 22.0416C8.56972 21.8738 8.53975 21.748 8.46784 21.6641C8.39593 21.5802 8.32401 21.4723 8.2521 21.3404C8.22813 21.1726 8.20416 20.9809 8.18019 20.7651C8.1682 20.5494 8.07831 20.3936 7.91051 20.2977C7.97044 20.2138 8.0004 20.0999 8.0004 19.9561C8.0004 19.8962 7.98842 19.8303 7.96445 19.7583C7.95246 19.6864 7.9165 19.6325 7.85657 19.5965V19.5606C7.84459 19.5006 7.86257 19.4587 7.91051 19.4347C7.97044 19.3988 8.0004 19.3508 8.0004 19.2909V19.219C7.9165 18.8354 7.87455 18.4339 7.87455 18.0144C7.87455 17.6189 7.88654 17.2294 7.91051 16.8458C7.93448 16.4503 7.93448 16.0548 7.91051 15.6593C7.98242 15.5993 8.03636 15.5034 8.07232 15.3716C8.12026 15.2398 8.15621 15.0959 8.18019 14.9401C8.20416 14.7843 8.21614 14.6345 8.21614 14.4907C8.22813 14.3348 8.24011 14.209 8.2521 14.1131C8.31203 13.4299 8.40791 12.7587 8.53975 12.0995C8.6716 11.4283 8.7495 10.7452 8.77347 10.05C8.8334 9.9541 8.86936 9.82825 8.88134 9.67244C8.89333 9.51663 8.89932 9.35482 8.89932 9.18702C8.89932 9.00724 8.91131 8.83345 8.93528 8.66565C8.95925 8.49785 9.00719 8.35402 9.07911 8.23417C9.07911 7.89857 9.10907 7.56297 9.169 7.22737C9.22893 6.87979 9.25889 6.53221 9.25889 6.18462C9.25889 6.01683 9.24091 5.84303 9.20496 5.66325C9.0851 5.61531 8.97723 5.59134 8.88134 5.59134C8.7495 5.59134 8.61167 5.6213 8.46784 5.68123C8.336 5.72917 8.24011 5.80708 8.18019 5.91495C7.9165 5.92693 7.65881 5.96888 7.40711 6.0408C7.15542 6.11271 6.90372 6.14867 6.65202 6.14867H6.47224C6.42429 6.14867 6.37036 6.14267 6.31043 6.13069C6.22653 6.16665 6.13664 6.19661 6.04075 6.22058C5.95685 6.24455 5.9209 6.31647 5.93288 6.43632C5.56133 6.47228 5.19577 6.55019 4.8362 6.67004C4.48862 6.7899 4.14103 6.92174 3.79345 7.06557C3.44587 7.19741 3.09828 7.32326 2.7507 7.44311C2.39113 7.56297 2.02557 7.64088 1.65402 7.67683C1.52217 7.73676 1.43827 7.86261 1.40232 8.05438C1.13863 8.03041 0.9169 7.96449 0.737116 7.85662C0.557331 7.74875 0.347583 7.64687 0.107871 7.55098C0.0359569 7.29929 0 7.05957 0 6.83185C0 6.53221 0.0599281 6.24455 0.179784 5.96888C0.299641 5.69321 0.49141 5.48946 0.755094 5.35762C0.815022 5.3696 0.868958 5.38159 0.9169 5.39357C0.964842 5.39357 1.01878 5.39357 1.07871 5.39357C1.27048 5.39357 1.46225 5.35762 1.65402 5.2857C1.84579 5.21379 2.04355 5.17783 2.2473 5.17783C2.30723 5.17783 2.37315 5.19581 2.44507 5.23177C2.52897 5.18383 2.63684 5.14787 2.76868 5.1239C2.88853 5.08794 3.0024 5.05798 3.11027 5.034C3.23012 4.99805 3.338 4.95011 3.43388 4.89018C3.52977 4.83025 3.58969 4.74635 3.61366 4.63848C3.67359 4.68642 3.73951 4.71639 3.81143 4.72837C3.88334 4.74036 3.95525 4.74635 4.02717 4.74635C4.18298 4.74635 4.34479 4.71639 4.51259 4.65646C4.68039 4.59653 4.81223 4.50064 4.90811 4.3688C4.99201 4.46469 5.11187 4.51263 5.26768 4.51263C5.43548 4.51263 5.59728 4.47068 5.7531 4.38678C5.9209 4.2909 6.0827 4.24295 6.23852 4.24295C6.35837 4.24295 6.44826 4.2849 6.50819 4.3688C6.64003 4.26093 6.79585 4.17703 6.97563 4.1171C7.15542 4.05718 7.3352 4.00324 7.51498 3.9553C7.70675 3.90736 7.88055 3.85342 8.03636 3.79349C8.20416 3.73356 8.336 3.64967 8.43188 3.54179C8.49181 3.55378 8.5877 3.55977 8.71954 3.55977C8.9233 3.55977 9.11506 3.5358 9.29485 3.48786C9.48662 3.42793 9.67839 3.374 9.87016 3.32605L10.2477 3.2901C10.3436 3.27811 10.4275 3.24815 10.4994 3.2002C10.5833 3.15226 10.6672 3.11031 10.7511 3.07436C10.835 3.0384 10.9189 3.00843 11.0028 2.98446C11.0987 2.96049 11.2125 2.9545 11.3444 2.96648C11.632 2.81067 11.9377 2.69082 12.2613 2.60692C12.5849 2.52302 12.9145 2.4511 13.2501 2.39118C13.5857 2.31926 13.9153 2.24135 14.2389 2.15746C14.5625 2.06157 14.8682 1.92374 15.1558 1.74395H15.2098C15.4495 1.74395 15.6832 1.702 15.9109 1.6181C16.1506 1.5342 16.3724 1.42034 16.5761 1.27651C16.6121 1.2885 16.648 1.29449 16.684 1.29449H16.8098C17.1454 1.29449 17.469 1.24655 17.7807 1.15066C18.1043 1.05478 18.4399 1.00684 18.7875 1.00684C18.9912 1.00684 19.153 1.0368 19.2729 1.09673C19.3927 1.14467 19.5006 1.21059 19.5965 1.29449C19.6924 1.3664 19.7943 1.43832 19.9021 1.51023C20.01 1.58215 20.1478 1.63608 20.3156 1.67204C20.4235 1.87579 20.4774 2.09753 20.4774 2.33724C20.4774 2.56497 20.4834 2.79869 20.4954 3.0384Z" fill="white"/>
</svg>
