<svg width="48" height="48" viewBox="0 0 48 48" fill="none" xmlns="http://www.w3.org/2000/svg">
<path d="M5.64236 47.9611C4.09067 47.9611 2.76234 47.4086 1.65736 46.3036C0.552371 45.1986 -0.00012207 43.8703 -0.00012207 42.3186C-0.00012207 40.7669 0.552371 39.4386 1.65736 38.3336C2.76234 37.2286 4.09067 36.6761 5.64236 36.6761C7.19404 36.6761 8.52237 37.2286 9.62736 38.3336C10.7323 39.4386 11.2848 40.7669 11.2848 42.3186C11.2848 43.8703 10.7323 45.1986 9.62736 46.3036C8.52237 47.4086 7.19404 47.9611 5.64236 47.9611ZM39.4972 47.9611C39.4972 42.4597 38.4628 37.3226 36.3939 32.55C34.325 27.7775 31.5037 23.6044 27.9301 20.0308C24.3566 16.4572 20.1835 13.636 15.4109 11.5671C10.6383 9.49817 5.50129 8.46372 -0.00012207 8.46372V0C6.67681 0 12.907 1.24605 18.6906 3.73814C24.4741 6.23024 29.5524 9.66274 33.9253 14.0357C38.2982 18.4086 41.7307 23.4868 44.2228 29.2704C46.7149 35.0539 47.9609 41.2841 47.9609 47.9611H39.4972ZM22.5698 47.9611C22.5698 44.8107 21.982 41.8836 20.8065 39.18C19.631 36.4763 18.0088 34.09 15.9399 32.0211C13.871 29.9522 11.4847 28.3299 8.78098 27.1544C6.0773 25.9789 3.15026 25.3912 -0.00012207 25.3912V16.9274C4.32578 16.9274 8.3578 17.7385 12.0959 19.3608C15.8341 20.983 19.1138 23.2047 21.935 26.0259C24.7563 28.8472 26.978 32.1269 28.6002 35.865C30.2224 39.6031 31.0335 43.6352 31.0335 47.9611H22.5698Z" fill="#1DDA63"/>
</svg>
