<svg width="19" height="19" viewBox="0 0 19 19" fill="none" xmlns="http://www.w3.org/2000/svg">
<path d="M9.425 18.85C14.6303 18.85 18.85 14.6303 18.85 9.425C18.85 4.21972 14.6303 0 9.425 0C4.21972 0 0 4.21972 0 9.425C0 14.6303 4.21972 18.85 9.425 18.85Z" fill="url(#paint0_linear_310_377)"/>
<path d="M14.3596 9.1257C14.2924 6.47755 12.149 4.40332 9.47948 4.40332C6.85841 4.40332 4.71631 6.43771 4.60286 9.03424C4.59935 9.1053 4.59712 9.17637 4.59712 9.24807C4.59712 10.1098 4.8272 10.9533 5.26251 11.6916C5.27302 11.7095 5.27525 11.7305 5.26856 11.75L4.40369 14.3047C4.3919 14.3395 4.42472 14.3729 4.45978 14.3618L7.12004 13.5157C7.1382 13.51 7.15764 13.5119 7.17453 13.5208C7.88102 13.8962 8.67643 14.0944 9.47916 14.0944C12.1713 14.0944 14.3615 11.9204 14.3615 9.24839C14.3621 9.21302 14.3596 9.1257 14.3596 9.1257ZM6.1841 11.431C5.74625 10.7834 5.51585 10.032 5.51585 9.24839C5.51585 9.12315 5.5219 8.99823 5.53465 8.86694C5.73159 6.84179 7.42756 5.3144 9.47948 5.3144C11.5365 5.3144 13.272 6.90711 13.431 8.94023C13.4402 9.06005 13.4444 9.15757 13.4444 9.24743C13.4444 11.4166 11.6659 13.1811 9.47948 13.1811C8.89631 13.1811 8.32652 13.0546 7.80486 12.8118C7.65923 12.7439 7.38294 12.5788 7.29562 12.5262C7.27778 12.5154 7.25707 12.5135 7.23731 12.5195L5.89826 12.9456C5.86766 12.9555 5.83866 12.9262 5.84918 12.8956L6.28193 11.6203C6.28926 11.5983 6.28576 11.574 6.27237 11.5552C6.24624 11.5192 6.2029 11.4587 6.1841 11.431Z" fill="white"/>
<path d="M11.801 10.3267C11.7704 10.278 11.5601 10.177 11.5601 10.177C11.4769 10.1358 10.8654 9.83629 10.7507 9.79486C10.6522 9.75949 10.541 9.71966 10.4409 9.86816C10.3648 9.98065 10.1427 10.24 10.0703 10.3216C10.0196 10.3793 9.97312 10.3981 9.86063 10.342C9.84183 10.3328 9.29722 10.1002 8.92151 9.76778C8.58818 9.47365 8.35746 9.10972 8.27365 8.96696C8.22202 8.87996 8.25581 8.83949 8.31922 8.77544C8.35842 8.7372 8.53082 8.52847 8.54452 8.50839C8.57192 8.46664 8.621 8.36595 8.621 8.36595C8.67071 8.2678 8.6398 8.18239 8.61208 8.12599C8.59232 8.08711 8.27875 7.33218 8.24879 7.26112C8.15925 7.04793 8.06396 7.03677 7.97282 7.04187C7.92853 7.04506 7.51362 7.04825 7.38137 7.19165L7.35811 7.21618C7.22841 7.35353 6.9585 7.63906 6.9585 8.19164C6.9585 8.31879 6.97889 8.4523 7.02096 8.60049C7.09807 8.8669 7.24881 9.15816 7.44798 9.42489C7.45244 9.43062 7.75581 9.85191 7.90782 10.0269C8.38805 10.5798 8.93011 10.988 9.47727 11.2018C10.1764 11.4749 10.4747 11.5374 10.6442 11.5374C10.7185 11.5374 10.8743 11.4998 10.9081 11.4966C11.1216 11.4774 11.6292 11.2129 11.736 10.9159C11.8367 10.6352 11.8389 10.3898 11.801 10.3267Z" fill="white"/>
<defs>
<linearGradient id="paint0_linear_310_377" x1="6.00388" y1="19.468" x2="12.5713" y2="0.189354" gradientUnits="userSpaceOnUse">
<stop stop-color="#1DDA63"/>
<stop offset="1" stop-color="#005720"/>
</linearGradient>
</defs>
</svg>
